<svg xmlns="http://www.w3.org/2000/svg" width="24" height="24" viewBox="0 0 24 24" fill="none" stroke="#2563EB" stroke-width="2" stroke-linecap="round" stroke-linejoin="round">
  <!-- Left Half: Brain -->
  <path d="M12 5a3 3 0 1 0-5.997.125 4 4 0 0 0-2.526 5.77 4 4 0 0 0 .556 6.588A4 4 0 1 0 12 18Z" />
  <path d="M9 13a4.5 4.5 0 0 0 3-4" />
  <path d="M6 10.5a1.5 1.5 0 0 1 3-1.5" />
  <!-- Right Half: Document/System lines extending from the brain's center -->
  <path d="M12 5v13" />
  <path d="M12 7h7a2 2 0 0 1 2 2v9a2 2 0 0 1-2 2h-7" />
  <path d="M12 11h5" />
  <path d="M12 15h5" />
</svg>